<svg width="60" height="61" viewBox="0 0 60 61" fill="none" xmlns="http://www.w3.org/2000/svg">
<path d="M30 60.9569C46.5685 60.9569 60 47.5254 60 30.9569C60 14.3883 46.5685 0.956879 30 0.956879C13.4315 0.956879 0 14.3883 0 30.9569C0 47.5254 13.4315 60.9569 30 60.9569Z" fill="url(#paint0_linear_40_138)"/>
<path d="M33.36 51.2369V32.1569H39.78L40.77 24.5969L33.39 24.7169V19.9769C33.39 17.8169 33.99 16.3469 37.08 16.3469H41.01V9.65686C40.32 9.56686 37.98 9.23686 35.28 9.35686C29.58 9.65686 25.71 12.8369 25.71 19.1969V24.6869H19.29V32.1269H25.71V51.2069H33.36V51.2369Z" fill="white"/>
<defs>
<linearGradient id="paint0_linear_40_138" x1="30" y1="0.956879" x2="30" y2="60.9569" gradientUnits="userSpaceOnUse">
<stop stop-color="#0BDA64"/>
<stop offset="1" stop-color="#089044"/>
</linearGradient>
</defs>
</svg>
