<svg width="137" height="34" viewBox="0 0 137 34" fill="none" xmlns="http://www.w3.org/2000/svg">
<path d="M12.9375 23.4688V26H3.86719V23.4688H12.9375ZM4.85156 8.9375V26H1.62891V8.9375H4.85156ZM11.7539 15.9805V18.4531H3.86719V15.9805H11.7539ZM12.9023 8.9375V11.4805H3.86719V8.9375H12.9023ZM25.1602 20.3867H28.3828C28.2969 21.5273 27.9805 22.5391 27.4336 23.4219C26.8867 24.2969 26.125 24.9844 25.1484 25.4844C24.1719 25.9844 22.9883 26.2344 21.5977 26.2344C20.5273 26.2344 19.5625 26.0469 18.7031 25.6719C17.8516 25.2891 17.1211 24.7461 16.5117 24.043C15.9102 23.332 15.4492 22.4805 15.1289 21.4883C14.8086 20.4883 14.6484 19.3672 14.6484 18.125V16.8242C14.6484 15.582 14.8125 14.4609 15.1406 13.4609C15.4688 12.4609 15.9375 11.6094 16.5469 10.9062C17.1641 10.1953 17.9023 9.64844 18.7617 9.26562C19.6289 8.88281 20.5977 8.69141 21.668 8.69141C23.0586 8.69141 24.2344 8.94922 25.1953 9.46484C26.1562 9.97266 26.9023 10.6719 27.4336 11.5625C27.9648 12.4531 28.2852 13.4766 28.3945 14.6328H25.1719C25.1094 13.9141 24.9531 13.3047 24.7031 12.8047C24.4609 12.3047 24.0938 11.9258 23.6016 11.668C23.1172 11.4023 22.4727 11.2695 21.668 11.2695C21.043 11.2695 20.4922 11.3867 20.0156 11.6211C19.5469 11.8555 19.1562 12.207 18.8438 12.6758C18.5312 13.1367 18.2969 13.7148 18.1406 14.4102C17.9844 15.0977 17.9062 15.8945 17.9062 16.8008V18.125C17.9062 18.9922 17.9766 19.7695 18.1172 20.457C18.2578 21.1445 18.4766 21.7266 18.7734 22.2031C19.0703 22.6797 19.4531 23.043 19.9219 23.293C20.3906 23.543 20.9492 23.668 21.5977 23.668C22.3867 23.668 23.0273 23.543 23.5195 23.293C24.0195 23.043 24.3984 22.6758 24.6562 22.1914C24.9219 21.707 25.0898 21.1055 25.1602 20.3867ZM44.6953 17.0352V17.9141C44.6953 19.2031 44.5234 20.3633 44.1797 21.3945C43.8359 22.418 43.3477 23.2891 42.7148 24.0078C42.082 24.7266 41.3281 25.2773 40.4531 25.6602C39.5781 26.043 38.6055 26.2344 37.5352 26.2344C36.4805 26.2344 35.5117 26.043 34.6289 25.6602C33.7539 25.2773 32.9961 24.7266 32.3555 24.0078C31.7148 23.2891 31.2188 22.418 30.8672 21.3945C30.5156 20.3633 30.3398 19.2031 30.3398 17.9141V17.0352C30.3398 15.7383 30.5156 14.5781 30.8672 13.5547C31.2188 12.5312 31.7109 11.6602 32.3438 10.9414C32.9766 10.2148 33.7305 9.66016 34.6055 9.27734C35.4883 8.89453 36.457 8.70312 37.5117 8.70312C38.582 8.70312 39.5547 8.89453 40.4297 9.27734C41.3047 9.66016 42.0586 10.2148 42.6914 10.9414C43.332 11.6602 43.8242 12.5312 44.168 13.5547C44.5195 14.5781 44.6953 15.7383 44.6953 17.0352ZM41.4375 17.9141V17.0117C41.4375 16.082 41.3516 15.2656 41.1797 14.5625C41.0078 13.8516 40.7539 13.2539 40.418 12.7695C40.082 12.2852 39.668 11.9219 39.1758 11.6797C38.6836 11.4297 38.1289 11.3047 37.5117 11.3047C36.8867 11.3047 36.332 11.4297 35.8477 11.6797C35.3711 11.9219 34.9648 12.2852 34.6289 12.7695C34.293 13.2539 34.0352 13.8516 33.8555 14.5625C33.6836 15.2656 33.5977 16.082 33.5977 17.0117V17.9141C33.5977 18.8359 33.6836 19.6523 33.8555 20.3633C34.0352 21.0742 34.293 21.6758 34.6289 22.168C34.9727 22.6523 35.3867 23.0195 35.8711 23.2695C36.3555 23.5195 36.9102 23.6445 37.5352 23.6445C38.1602 23.6445 38.7148 23.5195 39.1992 23.2695C39.6836 23.0195 40.0898 22.6523 40.418 22.168C40.7539 21.6758 41.0078 21.0742 41.1797 20.3633C41.3516 19.6523 41.4375 18.8359 41.4375 17.9141ZM61.1367 8.9375V26H57.9023L50.6484 14.1641V26H47.4258V8.9375H50.6484L57.9258 20.7852V8.9375H61.1367ZM71.4141 11.5273L66.5508 26H63.1406L69.5156 8.9375H71.6953L71.4141 11.5273ZM75.4805 26L70.5938 11.5273L70.3008 8.9375H72.4922L78.9023 26H75.4805ZM75.2578 19.6602V22.2031H66.1055V19.6602H75.2578ZM86.5078 8.9375V26H83.2969V8.9375H86.5078ZM91.8047 8.9375V11.4805H78.0586V8.9375H91.8047ZM103.441 8.9375H106.664V20.2695C106.664 21.5742 106.383 22.6719 105.82 23.5625C105.258 24.4453 104.492 25.1133 103.523 25.5664C102.555 26.0117 101.453 26.2344 100.219 26.2344C98.9688 26.2344 97.8555 26.0117 96.8789 25.5664C95.9023 25.1133 95.1367 24.4453 94.582 23.5625C94.0273 22.6719 93.75 21.5742 93.75 20.2695V8.9375H96.9727V20.2695C96.9727 21.0664 97.1055 21.7188 97.3711 22.2266C97.6367 22.7266 98.0117 23.0977 98.4961 23.3398C98.9805 23.582 99.5547 23.7031 100.219 23.7031C100.891 23.7031 101.465 23.582 101.941 23.3398C102.426 23.0977 102.797 22.7266 103.055 22.2266C103.312 21.7188 103.441 21.0664 103.441 20.2695V8.9375ZM109.723 8.9375H115.922C117.219 8.9375 118.332 9.13281 119.262 9.52344C120.191 9.91406 120.906 10.4922 121.406 11.2578C121.906 12.0234 122.156 12.9648 122.156 14.082C122.156 14.9648 122 15.7305 121.688 16.3789C121.375 17.0273 120.934 17.5703 120.363 18.0078C119.801 18.4453 119.137 18.7891 118.371 19.0391L117.363 19.5547H111.891L111.867 17.0117H115.957C116.621 17.0117 117.172 16.8945 117.609 16.6602C118.047 16.4258 118.375 16.1016 118.594 15.6875C118.82 15.2734 118.934 14.8008 118.934 14.2695C118.934 13.6992 118.824 13.207 118.605 12.793C118.387 12.3711 118.055 12.0469 117.609 11.8203C117.164 11.5938 116.602 11.4805 115.922 11.4805H112.945V26H109.723V8.9375ZM119.355 26L115.406 18.3594L118.816 18.3477L122.812 25.8359V26H119.355ZM136.289 23.4688V26H127.219V23.4688H136.289ZM128.203 8.9375V26H124.98V8.9375H128.203ZM135.105 15.9805V18.4531H127.219V15.9805H135.105ZM136.254 8.9375V11.4805H127.219V8.9375H136.254Z" fill="url(#paint0_linear_102_6)"/>
<rect x="77" width="60" height="4" fill="url(#paint1_linear_102_6)"/>
<rect x="2" y="30" width="60" height="4" fill="url(#paint2_linear_102_6)"/>
<defs>
<linearGradient id="paint0_linear_102_6" x1="36.5" y1="29" x2="115" y2="29" gradientUnits="userSpaceOnUse">
<stop stop-color="#9ED1AA"/>
<stop offset="1" stop-color="#3BDE82"/>
</linearGradient>
<linearGradient id="paint1_linear_102_6" x1="77" y1="1.99999" x2="137" y2="2" gradientUnits="userSpaceOnUse">
<stop stop-color="#70D99A"/>
<stop offset="1" stop-color="#3CDE83"/>
</linearGradient>
<linearGradient id="paint2_linear_102_6" x1="2" y1="32" x2="62" y2="32" gradientUnits="userSpaceOnUse">
<stop stop-color="#ACD3B5"/>
<stop offset="1" stop-color="#8AD6A6"/>
</linearGradient>
</defs>
</svg>
