<svg width="60" height="61" viewBox="0 0 60 61" fill="none" xmlns="http://www.w3.org/2000/svg">
<path d="M30 0.956879C46.56 0.956879 60 14.3969 60 30.9569C60 47.5169 46.56 60.9569 30 60.9569C13.44 60.9569 0 47.5169 0 30.9569C0 14.3969 13.44 0.956879 30 0.956879Z" fill="url(#paint0_linear_40_137)"/>
<path d="M30 17.5769C34.35 17.5769 34.86 17.6069 36.6 17.6669C38.19 17.7269 39.06 17.9969 39.63 18.2369C40.38 18.5369 40.92 18.8969 41.52 19.4669C42.09 20.0369 42.45 20.5769 42.75 21.3569C42.96 21.9269 43.23 22.7969 43.32 24.3869C43.41 26.0969 43.41 26.6369 43.41 30.9869C43.41 35.3369 43.38 35.8469 43.32 37.5869C43.26 39.1769 42.99 40.0469 42.75 40.6169C42.45 41.3669 42.09 41.9069 41.52 42.5069C40.95 43.0769 40.41 43.4369 39.63 43.7369C39.06 43.9469 38.19 44.2169 36.6 44.3069C34.89 44.3969 34.35 44.3969 30 44.3969C25.65 44.3969 25.14 44.3669 23.4 44.3069C21.81 44.2469 20.94 43.9769 20.37 43.7369C19.62 43.4369 19.08 43.0769 18.48 42.5069C17.91 41.9369 17.55 41.3969 17.25 40.6169C17.04 40.0469 16.77 39.1769 16.68 37.5869C16.59 35.8769 16.59 35.3369 16.59 30.9869C16.59 26.6369 16.62 26.1269 16.68 24.3869C16.74 22.7969 17.01 21.9269 17.25 21.3569C17.55 20.6069 17.91 20.0369 18.48 19.4669C19.05 18.8969 19.59 18.5369 20.37 18.2369C20.94 18.0269 21.81 17.7569 23.4 17.6669C25.11 17.5769 25.65 17.5769 30 17.5769ZM30 14.6369C25.56 14.6369 25.02 14.6669 23.28 14.7269C21.54 14.8169 20.37 15.0869 19.32 15.4769C18.24 15.8969 17.34 16.4369 16.44 17.3669C15.54 18.2669 14.97 19.1969 14.55 20.2469C14.16 21.2969 13.86 22.4669 13.8 24.2069C13.71 25.9469 13.71 26.5169 13.71 30.9269C13.71 35.3669 13.74 35.9069 13.8 37.6469C13.89 39.3869 14.16 40.5569 14.55 41.6069C14.97 42.6869 15.51 43.5869 16.44 44.4869C17.34 45.3869 18.27 45.9569 19.32 46.3769C20.37 46.7669 21.54 47.0669 23.28 47.1269C25.02 47.2169 25.59 47.2169 30 47.2169C34.44 47.2169 34.98 47.1869 36.72 47.1269C38.46 47.0369 39.63 46.7669 40.68 46.3769C41.76 45.9569 42.66 45.4169 43.56 44.4869C44.46 43.5869 45.03 42.6569 45.45 41.6069C45.84 40.5569 46.14 39.3869 46.2 37.6469C46.29 35.9069 46.29 35.3369 46.29 30.9269C46.29 26.4869 46.26 25.9469 46.2 24.2069C46.11 22.4669 45.84 21.2969 45.45 20.2469C45.03 19.1669 44.49 18.2669 43.56 17.3669C42.66 16.4669 41.73 15.8969 40.68 15.4769C39.63 15.0869 38.46 14.7869 36.72 14.7269C34.98 14.6369 34.44 14.6369 30 14.6369ZM30 22.5569C25.38 22.5569 21.63 26.3069 21.63 30.9269C21.63 35.5469 25.38 39.2969 30 39.2969C34.62 39.2969 38.37 35.5469 38.37 30.9269C38.37 26.3069 34.62 22.5569 30 22.5569ZM30 36.3869C27 36.3869 24.57 33.9569 24.57 30.9569C24.57 27.9569 27 25.5269 30 25.5269C33 25.5269 35.43 27.9569 35.43 30.9569C35.43 33.9569 33 36.3869 30 36.3869ZM40.65 22.2269C40.65 21.1469 39.78 20.2769 38.7 20.2769C37.62 20.2769 36.75 21.1469 36.75 22.2269C36.75 23.3069 37.62 24.1769 38.7 24.1769C39.78 24.2069 40.65 23.3069 40.65 22.2269Z" fill="white"/>
<defs>
<linearGradient id="paint0_linear_40_137" x1="30" y1="0.956879" x2="30" y2="60.9569" gradientUnits="userSpaceOnUse">
<stop stop-color="#0BDA64"/>
<stop offset="1" stop-color="#089044"/>
</linearGradient>
</defs>
</svg>
