<?xml version="1.0" encoding="utf-8"?>
<!-- Generator: Adobe Illustrator 23.0.5, SVG Export Plug-In . SVG Version: 6.00 Build 0)  -->
<svg version="1.1" xmlns="http://www.w3.org/2000/svg" xmlns:xlink="http://www.w3.org/1999/xlink" x="0px" y="0px"
	 viewBox="0 0 1541 1028" style="enable-background:new 0 0 1541 1028;" xml:space="preserve">
<style type="text/css">
	.st0{fill:#FFFFFF;}
	.st1{fill:none;stroke:#FFFFFF;stroke-width:6.9744;stroke-miterlimit:10;}
	.st2{fill:#EEEFEF;}
	.st3{opacity:0.99;fill:#FFFFFF;stroke:#000000;stroke-width:0.3859;stroke-miterlimit:10;}
	.st4{fill-rule:evenodd;clip-rule:evenodd;fill:#FEFEFE;}
	.st5{fill-rule:evenodd;clip-rule:evenodd;fill:#FFFFFF;}
</style>
<g id="Pinterest">
	<g>
		<path d="M146.7,45.1c55.2,0,100,44.8,100,100s-44.8,100-100,100s-100-44.8-100-100S91.5,45.1,146.7,45.1"/>
	</g>
	<path class="st0" d="M149.1,79.7c-35.8,0-55.9,22.1-55.9,48.3c0,12.2,7.5,29.3,17.9,34.2c1.6,0.7,2.4,0.4,2.8-1.1
		c0.3-1.2,1.3-5,1.9-7.6c0.2-0.8,0.5-3.3-0.2-4.2c-3.4-4.2-7.2-11.9-7.2-19c0-18.3,14.9-36,38.5-36c20.4,0,35.9,13.9,35.9,33.7
		c0,22.5-12.6,38.1-27.3,38.1c-8.2,0-14.3-6.7-12.3-15c2.3-9.9,6.9-20.5,6.9-27.7c0-6.4-3.2-12.7-10.3-12.7
		c-8.3,0-15.2,9.6-15.2,21.1c0,7.4,2.5,12.3,2.5,12.3s-8.2,34.8-9.7,41.3c-1.5,6.3-1.1,11.8-0.6,21.2c0.1,1.6,1.2,3,2.7,3.5
		c1.9,0.7,4,0,5-1.8c3.6-6.8,7-12.8,8.6-18.8c1-3.9,5.2-19.7,5.2-19.7c2.7,5.2,10.6,9.5,19,9.5c25.1,0,43.1-23,43.1-51.7
		C200.3,100.2,177.9,79.7,149.1,79.7"/>
</g>
<g id="Youtube">
	<g>
		<circle cx="393.9" cy="145.2" r="100"/>
	</g>
	<path class="st0" d="M445.3,124.2c0,0-1-7.2-4.2-10.4c-4-4.2-8.5-4.2-10.5-4.4c-14.7-1.1-36.7-1.1-36.7-1.1h0c0,0-22,0-36.7,1.1
		c-2.1,0.2-6.5,0.3-10.5,4.4c-3.1,3.2-4.2,10.4-4.2,10.4s-1.1,8.5-1.1,17v8c0,8.5,1.1,17,1.1,17s1,7.2,4.2,10.4
		c4,4.2,9.2,4,11.6,4.5c8.4,0.8,35.7,1.1,35.7,1.1s22,0,36.7-1.1c2-0.2,6.5-0.3,10.5-4.4c3.1-3.2,4.2-10.4,4.2-10.4s1-8.5,1-17v-8
		C446.3,132.7,445.3,124.2,445.3,124.2z M383.1,158.8v-29.5l28.3,14.8L383.1,158.8z"/>
</g>
<g id="Messenger">
	<g>
		<circle cx="393" cy="390" r="100"/>
	</g>
	<path id="LOGO_5_" class="st0" d="M394.8,331.1c-33.1,0-61.7,22.1-61.7,52.9c0,17.6,5.8,30.8,19.5,41l-0.8,23.8l21.3-12.9
		c5.4,1.5,14,4,20,4c33.1,0,60-25,60-55.9S427.9,331.1,394.8,331.1z M399,403.4l-15.1-12.6l-30,12.6l32.3-31.7l16.2,13.1l29.4-16.4
		L399,403.4z"/>
</g>
<g id="LinkedIn">
	<g>
		<path d="M636.9,290.7c55.2,0,100,44.8,100,100s-44.8,100-100,100c-55.2,0-100-44.8-100-100S581.7,290.7,636.9,290.7"/>
	</g>
	<path class="st0" d="M587.8,369.4h22.3V441h-22.3V369.4z M598.9,333.7c7.1,0,12.9,5.8,12.9,12.9c0,7.1-5.8,12.9-12.9,12.9
		c-7.2,0-12.9-5.8-12.9-12.9C586,339.5,591.8,333.7,598.9,333.7 M624.1,441h22.2v-35.4c0-9.3,1.8-18.4,13.4-18.4
		c11.4,0,11.6,10.7,11.6,19V441h22.2v-39.3c0-19.3-4.2-34.1-26.7-34.1c-10.8,0-18.1,5.9-21.1,11.6h-0.3v-9.8h-21.3V441z"/>
</g>
<g id="Dribbble">
	<g>
		<circle cx="148" cy="389" r="100"/>
	</g>
	<path id="LOGO_18_" class="st0" d="M148,456.1c-37.1,0-67.2-30.1-67.2-67.1c0-37.1,30.1-67.1,67.2-67.1s67.2,30.1,67.2,67.1
		S185.1,456.1,148,456.1L148,456.1L148,456.1z M204.6,398.2c-1.9-0.6-17.7-5.3-35.7-2.5c7.5,20.6,10.6,37.4,11.1,40.8
		C192.9,427.9,202.1,414.1,204.6,398.2L204.6,398.2L204.6,398.2z M169.6,442.3c-0.8-5-3.4-23-11.4-43.9c-0.1,0.1-0.3,0.1-0.4,0.1
		c-32.4,11.3-44,33.7-45,35.8c9.7,7.6,21.9,12.1,35.2,12.1c7.9,0.1,15.5-1.6,22.4-4.5l0,0L169.6,442.3z M104.6,426.5
		c1.3-2.2,17.8-27.4,47.4-37c0.7-0.3,1.5-0.5,2.3-0.7c-1.4-3.3-3-6.5-4.7-9.7c-28.7,8.6-56.5,8.2-59,8.1c0,0.6-0.1,1.2-0.1,1.7
		c0.1,14.8,5.6,28.2,14.8,38.4l0,0L104.6,426.5z M92.1,376.3c2.6,0.1,25.9,1.2,52.8-5.9c-9.5-16.9-19.8-31.1-21.3-33.1
		c-16.1,7.6-28.1,22.4-31.8,40.1l0,0L92.1,376.3z M134.6,333.3c1.6,2.1,12,16.3,21.4,33.5c20.4-7.7,29-19.2,30.1-20.7
		c-10.1-9-23.5-14.4-38.1-14.4C143.4,331.8,138.9,332.3,134.6,333.3L134.6,333.3L134.6,333.3z M193.2,353.9
		c-1.2,1.6-11.6,12.9-32.8,21.5c1.3,2.7,2.6,5.5,3.8,8.3c0.4,1,0.5,1,0.9,2c19.1-2.4,38.5,1.3,40.4,1.6
		c-0.2-13.5-5.1-24.8-13.1-34.5l0,0L193.2,353.9z"/>
</g>
<g id="Instagram">
	<g>
		<path d="M884.9,289.3c55.2,0,100,44.8,100,100s-44.8,100-100,100c-55.2,0-100-44.8-100-100S829.7,289.3,884.9,289.3"/>
	</g>
	<path class="st0" d="M884.9,344.7c14.5,0,16.2,0.1,22,0.3c5.3,0.2,8.2,1.1,10.1,1.9c2.5,1,4.3,2.2,6.3,4.1c1.9,1.9,3.1,3.7,4.1,6.3
		c0.7,1.9,1.6,4.8,1.9,10.1c0.3,5.7,0.3,7.5,0.3,22c0,14.5-0.1,16.2-0.3,22c-0.2,5.3-1.1,8.2-1.9,10.1c-1,2.5-2.2,4.3-4.1,6.3
		c-1.9,1.9-3.7,3.1-6.3,4.1c-1.9,0.7-4.8,1.6-10.1,1.9c-5.7,0.3-7.5,0.3-22,0.3c-14.5,0-16.2-0.1-22-0.3c-5.3-0.2-8.2-1.1-10.1-1.9
		c-2.5-1-4.3-2.2-6.3-4.1c-1.9-1.9-3.1-3.7-4.1-6.3c-0.7-1.9-1.6-4.8-1.9-10.1c-0.3-5.7-0.3-7.5-0.3-22c0-14.5,0.1-16.2,0.3-22
		c0.2-5.3,1.1-8.2,1.9-10.1c1-2.5,2.2-4.4,4.1-6.3c1.9-1.9,3.7-3.1,6.3-4.1c1.9-0.7,4.8-1.6,10.1-1.9
		C868.6,344.7,870.4,344.7,884.9,344.7 M884.9,334.9c-14.8,0-16.6,0.1-22.4,0.3c-5.8,0.3-9.7,1.2-13.2,2.5c-3.6,1.4-6.6,3.2-9.6,6.3
		c-3,3-4.9,6.1-6.3,9.6c-1.3,3.5-2.3,7.4-2.5,13.2c-0.3,5.8-0.3,7.7-0.3,22.4c0,14.8,0.1,16.6,0.3,22.4c0.3,5.8,1.2,9.7,2.5,13.2
		c1.4,3.6,3.2,6.6,6.3,9.6c3,3,6.1,4.9,9.6,6.3c3.5,1.3,7.4,2.3,13.2,2.5c5.8,0.3,7.7,0.3,22.4,0.3c14.8,0,16.6-0.1,22.4-0.3
		c5.8-0.3,9.7-1.2,13.2-2.5c3.6-1.4,6.6-3.2,9.6-6.3c3-3,4.9-6.1,6.3-9.6c1.3-3.5,2.3-7.4,2.5-13.2c0.3-5.8,0.3-7.7,0.3-22.4
		c0-14.8-0.1-16.6-0.3-22.4c-0.3-5.8-1.2-9.7-2.5-13.2c-1.4-3.6-3.2-6.6-6.3-9.6c-3-3-6.1-4.9-9.6-6.3c-3.5-1.3-7.4-2.3-13.2-2.5
		C901.5,334.9,899.7,334.9,884.9,334.9 M884.9,361.3c-15.4,0-27.9,12.5-27.9,27.9c0,15.4,12.5,27.9,27.9,27.9
		c15.4,0,27.9-12.5,27.9-27.9C912.8,373.8,900.3,361.3,884.9,361.3 M884.9,407.4c-10,0-18.1-8.1-18.1-18.1c0-10,8.1-18.1,18.1-18.1
		s18.1,8.1,18.1,18.1C903,399.3,894.9,407.4,884.9,407.4 M920.4,360.2c0-3.6-2.9-6.5-6.5-6.5c-3.6,0-6.5,2.9-6.5,6.5
		c0,3.6,2.9,6.5,6.5,6.5C917.5,366.8,920.4,363.8,920.4,360.2"/>
</g>
<g id="Qzone">
	<g>
		<path d="M888.8,534.5c55.2,0,100,44.8,100,100c0,55.2-44.8,100-100,100c-55.2,0-100-44.8-100-100
			C788.8,579.2,833.6,534.5,888.8,534.5"/>
	</g>
	<path class="st0" d="M933.9,700.8l-41.2-20.5c-1.5-0.7-3.2-0.7-4.6,0.1l-40.2,22.3c-3.6,2-7.9-1-7.3-5.1l6.8-45.5
		c0.2-1.6-0.3-3.3-1.5-4.4l-33.6-31.4c-3-2.8-1.5-7.9,2.6-8.5l45.4-7.6c1.6-0.3,3-1.3,3.7-2.8l19.5-41.7c1.7-3.7,7-3.9,8.9-0.2
		l21.2,40.8c0.8,1.5,2.2,2.4,3.8,2.6l45.6,5.6c4.1,0.5,5.8,5.5,2.9,8.4l-32.2,32.8c-1.1,1.2-1.6,2.8-1.3,4.4l8.8,45.1
		C941.8,699.4,937.6,702.6,933.9,700.8z"/>
	<path d="M844.3,615c0,0,65.1-10.7,95.6-0.8l-58.8,42.1c0,0,62.2,4.5,73.8,1.1c0,0-29.4,13.9-101.5,5.4l58.8-43.3L844.3,615z"/>
</g>
<g id="TikTok">
	<g>
		<path d="M1132.8,533.5c55.2,0,100,44.8,100,100c0,55.2-44.8,100-100,100s-100-44.8-100-100
			C1032.8,578.2,1077.6,533.5,1132.8,533.5"/>
	</g>
	<path class="st0" d="M1136.2,572.7c7.4,0,13.1,0,19.7,0c2,17.7,13.1,27,30.4,29.4c0,6.7,0,14.7,0,21.7
		c-10.5,0.5-19.7-4.4-28.8-10.2c-0.1,1.5-0.3,2.5-0.3,3.6c0,12.9,0,25.8,0,38.7c-0.1,21.8-15.7,36.8-38.4,38.3
		c-18.1,1.2-36.1-13.7-39-33c-3.4-23.1,16.1-44.7,39.5-43.6c1.3,0.1,2.6,0.3,4,0.5c0,6.9-0.1,13.5-0.1,20.5c-1.1,0-2.2,0.1-3.3,0
		c-10.5-0.6-19,6.7-19.3,16.8c-0.4,9.6,7.1,17.3,16.5,17.6c10.6,0.4,18.9-6.5,19-17.1c0.1-25.8,0.1-51.6,0.1-77.4
		C1136.2,576.7,1136.2,574.8,1136.2,572.7z"/>
</g>
<g id="Reddit">
	<g>
		<path d="M148.8,781.3c55.2,0,100,44.8,100,100s-44.8,100-100,100s-100-44.8-100-100S93.6,781.3,148.8,781.3"/>
	</g>
	<path class="st0" d="M207.2,890.3c0.6,2.3,0.9,4.3,0.9,6.7c0,13.9-9.3,26.9-23.7,34.6c-9.8,5.3-22,8.7-35.2,8.7
		c-16,0-30.5-4.9-41.1-12.4c-11-7.7-17.8-19.1-17.8-31c0-2.4,0.6-4.7,1.2-7c-5.1-2.5-8.9-7.8-8.7-13.9c0.3-7.7,6.6-13.9,14.3-14.1
		c4.4-0.1,8.3,1.3,11.2,4.3c3.3-2.3,6.9-4,10.9-5.7c8-3.5,17.3-5.6,27.2-6l8.6-37.8c0.3-1.3,1.7-1.9,3-1.6l16.3,3.2l9.2,1.8
		c1.8-3.5,5.5-6.1,9.8-6.1c6.6,0,11.4,5.7,10.7,12.3c-0.6,5.1-4.6,9.1-9.7,9.7c-3.5,0.4-6.7-0.8-9-3c-2.1-2-3.4-4.8-3.4-7.9
		l-22.6-4.8l-7.7,34.2c8.8,0.3,17.1,1.9,24.5,4.7c5.1,1.9,9.8,4,13.9,6.8c3.7-3.9,9.6-5.3,15.7-3.3c4.5,1.5,7.9,5.3,9.1,9.9
		C216.6,880.3,213.1,887.4,207.2,890.3z M127,902.6c5.1-0.6,9.2-4.7,9.8-9.8c0.7-6.7-4.6-12.4-11.2-12.3
		c-5.9,0.1-10.7,4.9-10.8,10.8C114.6,898,120.3,903.3,127,902.6z M173.9,913.6c-1-1-3.1-0.7-4.1,0.3c-2.2,2.3-5.7,3.8-9.5,4.7
		c-3.8,1-7.9,1.3-11.3,1.3c-6.8,0-16.3-1.6-20.8-6.1c-1-1-3.1-1.4-4.1-0.3c-1.1,1-0.8,3.1,0.3,4.2c7,7,20.6,7.5,24.6,7.5
		c2.4,0,8.4-0.2,14.2-1.9c3.8-1.1,7.6-2.9,10.3-5.6C174.7,916.7,175,914.7,173.9,913.6z M183.3,891.3c-0.1-5.9-4.9-10.7-10.8-10.8
		c-6.6-0.1-12,5.6-11.2,12.3c0.4,3.2,2.1,6,4.6,7.8c1.5,1.1,3.3,1.8,5.2,2C177.7,903.3,183.4,898,183.3,891.3z"/>
</g>
<g id="Viber">
	<g>
		<path d="M392.8,781.1c55.2,0,100,44.8,100,100c0,55.2-44.8,100-100,100s-100-44.8-100-100C292.8,825.8,337.6,781.1,392.8,781.1"/>
	</g>
	<g>
		<path class="st0" d="M441.3,829.7L441.3,829.7c-11.2-10.7-39.3-15.5-63.7-12.5c-13.8,1.7-26.4,6-34,13.2
			c-9.4,9.7-12.7,24-13.1,41.7c-0.4,17.7-0.8,50.8,30.1,59.8h0l0,13.7c0,0-0.8,5.6,2.7,6.7c4.1,1.3,6.5-1.3,19.2-16.4
			c21.1,1.8,37.4-2.4,39.2-3c4.3-1.4,28-4.6,31.9-37.8c1.6-13.1,1.7-24.4,0.7-33.8C452.7,846.2,448,835.7,441.3,829.7z M444.7,892.7
			c-3.3,27.7-22.7,29.4-26.3,30.6c-1.5,0.5-16.8,5-34.8,3.8c0,0-12.4,15.9-16.5,20.2c-2,2.1-2.8,1.3-2.8-1.5
			c0-1.8,0.9-22.2,0.9-22.2c-26.2-7.5-25.1-36.3-24.8-51.1c0.3-14.8,2.6-26.9,10.5-35c6.5-6.1,17.3-9.6,29-10.9
			c21.3-2.5,46,2,54.5,10c6,5.3,9,14.3,10.3,23.6C447,875.7,444.7,891.9,444.7,892.7z"/>
		<path class="st0" d="M392.5,842c-2.2,0-2.2,3.4,0,3.4c17,0.1,30.9,11.9,31.1,33.6c0,2.3,3.3,2.3,3.3,0h0
			C426.7,855.7,411.4,842.2,392.5,842L392.5,842z"/>
		<path class="st0" d="M415.6,874.9c-0.1,2.3,3.3,2.4,3.3,0.1c0.3-12.9-7.7-23.5-22.6-24.6c-2.2-0.2-2.4,3.3-0.2,3.4
			C409,854.8,415.9,863.6,415.6,874.9L415.6,874.9z"/>
		<path class="st0" d="M403.3,889.9l-2.5,3.2c-1.3,1.6-3.6,1.4-3.6,1.4c-17.1-4.5-21.7-22.4-21.7-22.4s-0.2-2.4,1.4-3.7l3.1-2.6
			c1.5-1.2,2.9-3.3,0.9-7.1c-3.5-8.3-4-8.7-7.8-12.6c-2.1-2.3-4.4-1.9-6.8-0.6h-0.1c-2.3,1.3-4.6,3.2-6.3,5.3
			c-2,2.5-3.2,5.5-2.2,8.4c2.2,6.9,8.3,24.4,25.5,38.5c8.1,6.6,20.9,13.5,26.3,15l0.1,0.1c5.3,1.8,10.5-3.8,13.3-8.9v0
			c1.2-2.4,1.1-3.9-0.4-6.3c-2.3-4.2-10.5-10-14.5-9.6C408.1,888.1,404.5,888.3,403.3,889.9z"/>
		<path class="st0" d="M399.7,862.6c2.5,0.1,4.5,0.8,5.9,2.2s2.3,3.6,2.5,6.8c0.1,2.3,3.4,2.1,3.3-0.2c-0.2-3.7-1.2-6.5-3-8.6
			c-1.9-2.2-4.8-3.5-8.6-3.7C397.7,859,397.5,862.5,399.7,862.6L399.7,862.6z"/>
	</g>
</g>
<g id="Snapchat">
	<g>
		<path d="M1132.7,290.5c55.2,0,100,44.8,100,100s-44.8,100-100,100s-100-44.8-100-100S1077.5,290.5,1132.7,290.5"/>
	</g>
	<path class="st1" d="M1133.5,450.8c-0.3,0-0.7,0-1,0l0,0c-0.2,0-0.4,0-0.6,0c-7.6,0-12.5-3.5-17.2-6.8c-3.3-2.3-6.3-4.5-10-5.1
		c-1.8-0.3-3.5-0.4-5.2-0.4c-3.1,0-5.5,0.5-7.3,0.8c-1.1,0.2-2,0.4-2.7,0.4c-0.7,0-1.5-0.2-1.9-1.3c-0.3-1-0.5-2-0.7-3
		c-0.5-2.5-0.9-4-2-4.2c-12.1-1.9-15.5-4.4-16.3-6.2c-0.1-0.3-0.2-0.5-0.2-0.8c0-0.7,0.5-1.3,1.1-1.4c18.6-3.1,26.9-22,27.2-22.8
		c0,0,0,0,0-0.1c1.1-2.3,1.4-4.3,0.7-5.9c-1.3-3-5.4-4.3-8.2-5.2c-0.7-0.2-1.3-0.4-1.8-0.6c-5.5-2.2-5.9-4.4-5.7-5.5
		c0.4-1.9,3-3.3,5-3.3c0.6,0,1.1,0.1,1.5,0.3c2.5,1.2,4.7,1.7,6.6,1.7c2.7,0,3.8-1.1,4-1.3c-0.1-1.3-0.1-2.6-0.2-3.9
		c-0.6-8.8-1.2-19.7,1.5-25.9c8.3-18.7,26-20.1,31.2-20.1c0.1,0,2.3,0,2.3,0l0.3,0c5.2,0,22.9,1.5,31.2,20.1
		c2.8,6.2,2.1,17.1,1.5,25.9l0,0.4c-0.1,1.2-0.2,2.4-0.2,3.5c0.1,0.1,1.2,1.2,3.6,1.3h0c1.8-0.1,3.9-0.7,6.2-1.7
		c0.7-0.3,1.4-0.4,1.9-0.4c0.8,0,1.6,0.1,2.2,0.4l0,0c1.9,0.7,3.1,2,3.1,3.3c0,1.3-1,3.2-5.8,5.1c-0.5,0.2-1.1,0.4-1.8,0.6
		c-2.8,0.9-6.9,2.2-8.2,5.2c-0.7,1.6-0.5,3.6,0.7,5.9c0,0,0,0,0,0.1c0.3,0.8,8.7,19.8,27.2,22.8c0.7,0.1,1.2,0.7,1.1,1.4
		c0,0.3-0.1,0.5-0.2,0.8c-0.8,1.8-4.2,4.3-16.3,6.2c-1,0.2-1.4,1.4-2,4.1c-0.2,1-0.4,1.9-0.7,3c-0.3,0.9-0.8,1.3-1.7,1.3h-0.2
		c-0.6,0-1.6-0.1-2.7-0.3c-2-0.4-4.3-0.8-7.3-0.8c-1.7,0-3.5,0.1-5.2,0.4c-3.6,0.6-6.7,2.8-10,5.1
		C1146,447.3,1141.1,450.8,1133.5,450.8"/>
</g>
<g id="Vimeo">
	<g id="XMLID_737_">
		<g>
			<path d="M884.8,782.9c55.2,0,100,44.8,100,100c0,55.2-44.8,100-100,100c-55.2,0-100-44.8-100-100
				C784.8,827.7,829.6,782.9,884.8,782.9"/>
		</g>
		<path id="XMLID_738_" class="st0" d="M929,835.8c-17.3-0.6-29,9.2-35.1,29.3c3.2-1.4,6.2-2,9.2-2c6.3,0,9.1,3.6,8.4,10.7
			c-0.4,4.3-3.2,10.6-8.4,18.8c-5.2,8.2-9.1,12.4-11.8,12.4c-3.4,0-6.4-6.3-9.2-19.1c-0.9-3.7-2.6-13.3-5-28.6
			c-2.2-14.2-8.2-20.8-17.9-19.9c-4.1,0.4-10.3,4.1-18.5,11.2c-6,5.4-12,10.8-18.2,16.2l5.9,7.6c5.6-3.9,8.9-5.9,9.8-5.9
			c4.3,0,8.3,6.7,12,20.1c3.4,12.3,6.7,24.6,10.1,36.9c5,13.4,11.2,20.1,18.4,20.1c11.7,0,26.1-11,43-33.1
			c16.4-21.1,24.9-37.7,25.4-49.9C947.8,844.5,941.8,836.2,929,835.8z"/>
	</g>
</g>
<g id="Behance">
	<g>
		<circle cx="1133.6" cy="883.1" r="100"/>
	</g>
	<g>
		<path class="st2" d="M1178.9,859.9c-35.4,0-35,33.6-35,33.8c0,0-2,34.5,35.9,34.5c0,0,31.2,1.7,31.2-23.7h-15.4
			c0,0-0.3,10.4-15.7,10.4c0,0-15.4,0.2-15.4-16.3l46.9-0.4C1211.4,898.2,1216.2,859.9,1178.9,859.9z M1163.4,886.7
			c0,0,2-13.7,16.2-13.7c14.3,0,14.1,13.7,14.1,13.7H1163.4z M1122.9,877.9c0,0,14.1-1.8,14.1-17.8c0-15.9-11.1-22.9-25.7-22.9
			h-47.6v89h47.6c0,0,29.1,1.8,28.9-25.5C1140.2,900.9,1141.5,877.9,1122.9,877.9z M1084,853.1h27.3c0,0,6.1,0.4,6.1,9.7
			s-3.4,10.2-7.7,10.2H1084V853.1z M1109.1,910.5h-24.7v-23.8h25.6c0,0,10.6-0.5,10.6,11.8C1120.6,908.9,1112.9,910.4,1109.1,910.5z
			 M1159.9,842.5v11h37.2v-11H1159.9z"/>
	</g>
</g>
<g id="Quora">
	<g>
		<circle cx="1390" cy="634" r="100"/>
	</g>
	<path class="st3" d="M1379.8,577.5c17.9-1.2,28,6.6,31.8,9c15.4,9.9,19.2,33.3,19.2,33.3c3.5,26.2-13.5,40.9-13.5,40.9
		c-1.9,2.5-1.4,5-0.1,7c1.8,2.9,5.2,4.9,5.2,4.9c11.6,7.3,13.9-6.2,13.9-6.2l8.1,0.4c-2.7,18.5-14.3,22.4-14.3,22.4
		c-16.2,5-25.1-6.2-25.1-6.2l-8.5-8.5l-6.2,0.8c-29.7,5.4-45.2-18.5-45.2-18.5c-15.4-25.9-7.3-44-7.3-44
		c7.6-21.3,23.2-30.2,31.3-33.4C1369.1,579.4,1374.5,577.9,1379.8,577.5z M1377.8,587.5c0,0-17.8,3.3-22,34.8c0,0-1.7,22.9,12.6,39
		c0,0,7.7,10.5,24.1,4.4c0,0-5.6-18.5-22.4-14.5l-3.7-6.1c0,0,11.7-8.7,28.5-4.2c0,0,7,2.6,11,10c0,0,6.6-8.2,6.1-26.4
		c0,0-0.4-15.3-6.9-24.1C1405.1,600.3,1394.6,582,1377.8,587.5z"/>
</g>
<g id="Skype">
	<g>
		<circle cx="1386" cy="391" r="100"/>
	</g>
	<path id="LOGO_14_" class="st4" d="M1442,402.2c-0.4-0.9-0.5-1.6-0.3-2.6c1.4-6.9,1.4-13.8,0.3-20.8c-5.1-30.7-34-52.2-64.7-48
		c-1.8,0.2-3.3,0-4.9-0.9c-13-6.9-28.9-4.6-39.4,5.8c-10.4,10.2-13,26.2-6.4,39.2c0.7,1.4,0.9,2.6,0.6,4.1c-0.6,3.1-0.7,6.3-0.8,9.6
		c0.1,1.9,0.1,3.9,0.3,5.9c3.5,33.3,33.9,56.6,67.1,51.4c1-0.2,1.9,0,2.8,0.5c6.3,3.2,13,3.9,19.8,2.8
		C1438.5,445.7,1450.8,422.9,1442,402.2z M1413,417.7c-3.7,4.2-8.4,7-13.7,8.5c-10,2.9-20.1,3-30,0c-9.1-2.7-14.7-7.9-17.3-17.3
		c-1.9-6.7,1.4-12.1,8-11.3c2.9,0.3,4.8,2.1,6.1,4.5c0.8,1.5,1.5,3.1,2.3,4.6c2.5,5.1,6.4,7.9,12.1,8.5c4.6,0.5,9.1,0.2,13.4-1.8
		c1.7-0.7,3.1-1.8,4.3-3.2c3.2-3.7,3.7-9.2-0.2-12.1c-3.8-2.8-9.5-3.3-13.9-4.2c-6.3-1.4-12.7-2.8-18.7-5.4
		c-6.2-2.7-11.2-6.7-12.8-13.7c-1.9-8.1,0.4-14.9,6.8-20.2c5.7-4.6,12.5-6,19.6-6.6c1.6-0.1,3.3-0.2,5-0.2c6.6-0.2,13,0.8,18.9,3.8
		c4.5,2.3,8.3,5.5,10.5,10.2c1.1,2.3,1.6,4.8,0.9,7.3c-0.8,3-1.4,4.7-4.5,5.3c-3.2,0.7-7.7,0.6-9.7-2.4c-1-1.4-1.9-2.9-2.8-4.4
		c-2.8-4.7-6.7-7.3-12.3-7.3c-2.6,0-5.1-0.1-7.6,0.5c-2.3,0.5-4.3,1.5-6,3.1c-3,2.8-2.9,6.7,0.3,9.3c2.1,1.7,4.6,3.9,7.2,4.6
		c6.1,1.6,12.4,1.8,18.5,3.4c3.3,0.9,6.5,2.2,9.6,3.7C1421.5,392.1,1420.4,409.3,1413,417.7z"/>
</g>
<g id="Dropbox">
	<g>
		<path d="M637.8,781.7c55.2,0,100,44.8,100,100c0,55.2-44.8,100-100,100c-55.2,0-100-44.8-100-100
			C537.8,826.5,582.6,781.7,637.8,781.7"/>
	</g>
	<polygon class="st0" points="572.1,891.4 595.4,871.6 633.5,894.8 611.7,913.9 	"/>
	<polygon class="st0" points="595.4,867.1 570.4,845.9 610.6,821.2 636.3,842.1 	"/>
	<polygon class="st0" points="640.1,842.8 680.4,867.1 706.1,846.2 665.5,821.2 	"/>
	<polygon class="st0" points="642.6,895.2 664.8,913.9 704,891.4 680.8,871.2 	"/>
	<polygon class="st0" points="596.2,910.2 596.2,917.7 636.7,942.1 636.7,895.2 609.8,917.4 	"/>
	<polygon class="st0" points="679,911 679,918.3 639.8,941.9 639.8,896.4 665.8,918 	"/>
</g>
<g id="Tumblr">
	<g>
		<circle cx="639" cy="634.5" r="100"/>
	</g>
	<g>
		<g>
			<path class="st0" d="M665.6,597.5v20.3h-19.7l0.2,42.1c0,8.3,0.2,14.3,0.5,15.7c0.4,1.4,2.3,3,4.6,3.4c1.2,0.2,1.6,0.2,3.4,0.2
				c2.5,0,6.1-0.9,10.9-2.6l2.3,19.8c-6.3,2.7-13.4,5.2-21.3,5.2c-4.9,0-9.2-0.9-13.1-2.5c-3.9-1.6-5.6-3.7-7.5-6.4
				c-1.8-2.6-3.1-6.1-3.8-10.5c-0.6-3.2-0.9-9.5-0.9-19l0.4-45.5h-13.9v-20.3h14.6v-20.2l24.1-14.6v34.9H665.6z"/>
		</g>
	</g>
</g>
<g id="WhatsUp">
	<g>
		<path d="M148,534.5c55.2,0,100,44.8,100,100c0,55.2-44.8,100-100,100s-100-44.8-100-100C48,579.2,92.8,534.5,148,534.5"/>
	</g>
	<path class="st5" d="M193.2,589c-12-12-27.9-18.6-44.9-18.6c-35,0-63.5,28.5-63.5,63.5c0,11.2,2.9,22.1,8.5,31.7l-5,29.4l29.6-5.4
		c9.3,5.1,19.7,7.7,30.3,7.7h0c35,0,63.5-28.5,63.5-63.5C211.8,617,205.2,601,193.2,589 M148.3,686.7L148.3,686.7
		c-9.5,0-18.8-2.5-26.9-7.4l-1.9-1.1l-20,5.2l5.3-19.5l-1.3-2c-5.3-8.4-8.1-18.1-8.1-28.1c0-29.1,23.7-52.7,52.8-52.7
		c14.1,0,27.3,5.5,37.3,15.5c10,10,15.4,23.2,15.4,37.3C201,663,177.4,686.7,148.3,686.7 M177.2,647.2c1.6,0.8,2.6,1.2,3,1.9
		c0.4,0.7,0.4,3.8-0.9,7.5c-1.3,3.7-7.7,7.1-10.7,7.5c-2.7,0.4-6.2,0.6-10-0.6c-2.3-0.7-5.3-1.7-9-3.3
		c-15.9-6.9-26.3-22.9-27.1-23.9c-0.8-1.1-6.5-8.6-6.5-16.4c0-7.8,4.1-11.6,5.6-13.2c1.5-1.6,3.2-2,4.2-2c1.1,0,2.1,0,3,0.1
		c1,0,2.3-0.4,3.6,2.7c1.3,3.2,4.5,11,4.9,11.8c0.4,0.8,0.7,1.7,0.1,2.8c-0.5,1.1-0.8,1.7-1.6,2.6c-0.8,0.9-1.7,2.1-2.4,2.8
		c-0.8,0.8-1.6,1.6-0.7,3.2c0.9,1.6,4.1,6.8,8.8,11c6.1,5.4,11.2,7.1,12.8,7.9c1.6,0.8,2.5,0.7,3.4-0.4c0.9-1.1,4-4.6,5-6.2
		c1.1-1.6,2.1-1.3,3.6-0.8C167.8,642.5,175.6,646.4,177.2,647.2"/>
</g>
<g id="Spotify">
	<g>
		<path d="M1384.8,785.3c55.2,0,100,44.8,100,100s-44.8,100-100,100c-55.2,0-100-44.8-100-100S1329.6,785.3,1384.8,785.3"/>
	</g>
	<g id="XMLID_11_">
		<path id="XMLID_12_" class="st0" d="M1384.7,824.8c-33.5,0-60.6,27.1-60.6,60.6c0,33.5,27.1,60.6,60.6,60.6
			c33.5,0,60.6-27.1,60.6-60.6C1445.3,851.9,1418.2,824.8,1384.7,824.8z M1412.6,912.3c-1.2,1.8-3.3,2.4-5.1,1.2
			c-14.2-8.8-32.1-10.6-53.3-5.8c-2.1,0.6-3.9-0.9-4.5-2.7c-0.6-2.1,0.9-3.9,2.7-4.5c23-5.1,43-3,58.8,6.7
			C1413.2,908.1,1413.5,910.5,1412.6,912.3z M1419.8,895.7c-1.5,2.1-4.2,3-6.4,1.5c-16.4-10-41.2-13-60.3-7c-2.4,0.6-5.1-0.6-5.8-3
			c-0.6-2.4,0.6-5.1,3-5.8c22.1-6.7,49.4-3.3,68.2,8.2C1420.4,890.5,1421.3,893.5,1419.8,895.7z M1420.4,878.7
			c-19.4-11.5-51.8-12.7-70.3-7c-3,0.9-6.1-0.9-7-3.6c-0.9-3,0.9-6.1,3.6-7c21.5-6.4,56.9-5.1,79.4,8.2c2.7,1.5,3.6,5.1,2.1,7.9
			C1426.8,879.3,1423.2,880.2,1420.4,878.7z"/>
	</g>
</g>
<g id="WeChat">
	<g>
		<circle cx="395" cy="634" r="100"/>
	</g>
	<path id="LOGO_9_" class="st0" d="M390.7,624.8c8.5-8.2,18.9-11.9,30.9-12.5c-0.7-7.3-3.3-13.5-7.5-19
		c-11.7-15.2-34.2-25-53.3-18.8c-14,4.6-24.1,12.8-28.3,27.3c-4.5,15.7,2.2,35,16.6,45.1c2.2,1.6,2.6,2.9,1.9,5.4
		c-1,3.3-1.6,6.8-2.4,10.7c4.7-3,8.7-5.6,12.9-8c1.3-0.7,3-0.9,4.5-0.8c4.3,0.4,8.6,1,13.3,1.6C378.2,643.3,382.2,633.1,390.7,624.8
		z M395.2,601.9c3-0.1,5.5,2.3,5.5,5.3c0,3-2.3,5.4-5.3,5.4c-3,0-5.5-2.3-5.6-5.3C389.8,604.5,392.3,602,395.2,601.9z M360.7,612.6
		c-3-0.1-5.4-2.5-5.3-5.5c0.1-3,2.6-5.3,5.6-5.2c3,0.1,5.4,2.7,5.3,5.5C366.3,610.4,363.7,612.7,360.7,612.6z M448.7,687.2
		L448.7,687.2L448.7,687.2L448.7,687.2z M455.4,630.2c-12-15.5-38.3-18.1-55.4-7c-19.2,12.6-23.1,37.4-6.6,52.7
		c8.7,8.1,20.9,10,32.7,8.8c3.9-0.4,7.8-2.5,11.5-2.1c3.7,0.4,7.2,2.9,11,4.6c-0.3-1-0.3-2-0.7-2.8c-2.4-4.3-1-7,2.7-10.3
		C463.4,662.7,465.9,643.7,455.4,630.2z M405.4,645.3c-2.4,0-4.4-1.9-4.5-4.3c-0.1-2.5,2-4.6,4.5-4.6c2.5,0,4.6,2.1,4.5,4.7
		C409.8,643.4,407.8,645.3,405.4,645.3z M433.2,645.3c-2.5,0-4.5-2.1-4.4-4.6c0.1-2.4,2.1-4.3,4.4-4.3c2.5,0,4.5,2.1,4.4,4.7
		C437.6,643.4,435.6,645.3,433.2,645.3z"/>
</g>
<g id="Zoom">
	<g>
		<circle cx="1131.9" cy="145.5" r="100"/>
	</g>
	<path id="LOGO_10_" class="st0" d="M1159.8,129.4v48.3c0,2-1.6,3.6-3.6,3.6h-70.4c-10.9,0-19.8-8.7-19.8-19.7v-48.3
		c0-2,1.6-3.6,3.6-3.6h70.4C1150.9,109.7,1159.8,118.5,1159.8,129.4z M1193.4,110.9l-29.1,21.2v26.8l29.1,21.2
		c2.1,1.6,4.5,2.1,4.5-2.2v-64.7C1197.9,109.4,1195.9,108.8,1193.4,110.9z"/>
</g>
<g id="Soundcloud">
	<g>
		<path d="M1387.8,47.3c55.2,0,100,44.8,100,100s-44.8,100-100,100c-55.2,0-100-44.8-100-100S1332.6,47.3,1387.8,47.3"/>
	</g>
	<g>
		<path class="st0" d="M1348.2,185.2h8.7c0.4,0,0.7-0.3,0.7-0.8v-67.3c0-0.5-0.5-0.9-0.9-0.7c-3.3,1.2-6.3,3.1-8.9,5.6
			c-0.2,0.1-0.2,0.4-0.2,0.6v61.9C1347.5,184.9,1347.8,185.2,1348.2,185.2z M1327.5,139.9v44.6c0,0.4,0.3,0.7,0.6,0.7l0,0
			c0,0,0,0,0.1,0h8.7c0.4,0,0.7-0.3,0.7-0.8v-44.6c0-0.4-0.3-0.8-0.7-0.8l-8.7,0.1C1327.8,139.1,1327.5,139.5,1327.5,139.9z
			 M1307.4,161.6c0,8,3.6,15.1,9,19.3c0.5,0.4,1.1,0,1.1-0.6V143c0-0.6-0.6-1-1.1-0.6C1311,146.6,1307.4,153.6,1307.4,161.6z
			 M1368.3,185.2h8.7c0.4,0,0.7-0.3,0.7-0.8v-64.8c0-0.3-0.1-0.5-0.3-0.6c-2.7-1.8-5.7-3-8.9-3.6c-0.4-0.1-0.8,0.3-0.8,0.7v68.3
			C1367.6,184.9,1367.9,185.2,1368.3,185.2z M1447.3,138.1h-4.9c-0.4,0-0.7-0.4-0.7-0.9c0.2-1.6,0.3-3.3,0.3-5
			c0-3.9-0.5-7.6-1.6-11.1c-4.1-14.1-15.7-24.7-28.2-23.8c-9.2,0.7-18.8,4.1-24.5,11.4c-0.1,0.1-0.2,0.3-0.2,0.5v75.2
			c0,0.4,0.3,0.8,0.7,0.8h58.9c11.4,0,20.7-10.6,20.7-23.6c0-7.5-3.1-14.2-8-18.6C1456.5,139.9,1452.1,138.1,1447.3,138.1z"/>
	</g>
</g>
<g id="Twitter">
	<g>
		<path d="M637.9,45.5c55.2,0,100,44.8,100,100s-44.8,100-100,100c-55.2,0-100-44.8-100-100S582.7,45.5,637.9,45.5"/>
	</g>
	<path class="st0" d="M611.1,204.3c54.6,0,84.5-45.3,84.5-84.5c0-1.3,0-2.6-0.1-3.8c5.8-4.2,10.8-9.4,14.8-15.4
		c-5.3,2.4-10.7,4.8-16.7,5.6c6.1-3.7,10.5-10.4,12.7-17.3c-5.7,3.4-12.5,5.3-19.3,6.6c-5.4-5.8-12.7-8.8-21.3-8.8
		c-16.4,0-29.7,13.3-29.7,29.7c0,2.3,0.3,4.6,0.8,6.8c-24.7-1.2-46.6-13.1-61.2-31c-2.6,4.4-4,9.5-4,14.9c0,10.3,5.7,18.2,13.7,23.5
		c-4.9-0.1-9.9-0.3-13.9-2.5c0,0.1,0,0.3,0,0.4c0,14.4,10.4,25.3,24,28c-2.5,0.7-5.3,2.2-8,2.2c-1.9,0-3.8-0.2-5.6-0.5
		c3.8,11.8,15.1,21.5,28.1,21.8c-10.2,8-23.3,11.6-37.3,11.6c-2.4,0-4.8-0.1-7.1-0.4C578.7,199.4,594.3,204.3,611.1,204.3"/>
</g>
<g id="Facebook">
	<g>
		<circle cx="883.9" cy="144.5" r="100"/>
	</g>
	<path class="st0" d="M895.1,212.1v-63.6h21.4l3.3-25.2l-24.6,0.4v-15.8c0-7.2,2-12.1,12.3-12.1l13.1,0V73.5
		c-2.3-0.3-10.1-1.4-19.1-1c-19,1-31.9,11.6-31.9,32.8v18.3h-21.4v24.8h21.4v63.6H895.1z"/>
</g>
</svg>
