<svg width="60" height="61" viewBox="0 0 60 61" fill="none" xmlns="http://www.w3.org/2000/svg">
<path d="M30 0.956879C46.56 0.956879 60 14.3969 60 30.9569C60 47.5169 46.56 60.9569 30 60.9569C13.44 60.9569 0 47.5169 0 30.9569C0 14.3669 13.44 0.956879 30 0.956879Z" fill="url(#paint0_linear_40_139)"/>
<path fill-rule="evenodd" clip-rule="evenodd" d="M43.56 17.3069C39.96 13.7069 35.19 11.7269 30.09 11.7269C19.59 11.7269 11.04 20.2769 11.04 30.7769C11.04 34.1369 11.91 37.4069 13.59 40.2869L12.09 49.1069L20.97 47.4869C23.76 49.0169 26.88 49.7969 30.06 49.7969C40.56 49.7969 49.11 41.2469 49.11 30.7469C49.14 25.7069 47.16 20.9069 43.56 17.3069ZM30.09 46.6169C27.24 46.6169 24.45 45.8669 22.02 44.3969L21.45 44.0669L15.45 45.6269L17.04 39.7769L16.65 39.1769C15.06 36.6569 14.22 33.7469 14.22 30.7469C14.22 22.0169 21.33 14.9369 30.06 14.9369C34.29 14.9369 38.25 16.5869 41.25 19.5869C44.25 22.5869 45.87 26.5469 45.87 30.7769C45.9 39.5069 38.82 46.6169 30.09 46.6169ZM38.76 34.7669C39.24 35.0069 39.54 35.1269 39.66 35.3369C39.78 35.5469 39.78 36.4769 39.39 37.5869C39 38.6969 37.08 39.7169 36.18 39.8369C35.37 39.9569 34.32 40.0169 33.18 39.6569C32.49 39.4469 31.59 39.1469 30.48 38.6669C25.71 36.5969 22.59 31.7969 22.35 31.4969C22.11 31.1669 20.4 28.9169 20.4 26.5769C20.4 24.2369 21.63 23.0969 22.08 22.6169C22.53 22.1369 23.04 22.0169 23.34 22.0169C23.67 22.0169 23.97 22.0169 24.24 22.0469C24.54 22.0469 24.93 21.9269 25.32 22.8569C25.71 23.8169 26.67 26.1569 26.79 26.3969C26.91 26.6369 27 26.9069 26.82 27.2369C26.67 27.5669 26.58 27.7469 26.34 28.0169C26.1 28.2869 25.83 28.6469 25.62 28.8569C25.38 29.0969 25.14 29.3369 25.41 29.8169C25.68 30.2969 26.64 31.8569 28.05 33.1169C29.88 34.7369 31.41 35.2469 31.89 35.4869C32.37 35.7269 32.64 35.6969 32.91 35.3669C33.18 35.0369 34.11 33.9869 34.41 33.5069C34.74 33.0269 35.04 33.1169 35.49 33.2669C35.94 33.3569 38.28 34.5269 38.76 34.7669Z" fill="white"/>
<defs>
<linearGradient id="paint0_linear_40_139" x1="30" y1="0.956879" x2="30" y2="60.9569" gradientUnits="userSpaceOnUse">
<stop stop-color="#0BDA64"/>
<stop offset="1" stop-color="#089044"/>
</linearGradient>
</defs>
</svg>
