<svg width="60" height="61" viewBox="0 0 60 61" fill="none" xmlns="http://www.w3.org/2000/svg">
<path d="M30 60.9569C46.5685 60.9569 60 47.5254 60 30.9569C60 14.3883 46.5685 0.956879 30 0.956879C13.4315 0.956879 0 14.3883 0 30.9569C0 47.5254 13.4315 60.9569 30 60.9569Z" fill="url(#paint0_linear_40_136)"/>
<path d="M45.42 24.6569C45.42 24.6569 45.12 22.4969 44.16 21.5369C42.96 20.2769 41.61 20.2769 41.01 20.2169C36.6 19.8869 30 19.8869 30 19.8869C30 19.8869 23.4 19.8869 18.99 20.2169C18.36 20.2769 17.04 20.3069 15.84 21.5369C14.91 22.4969 14.58 24.6569 14.58 24.6569C14.58 24.6569 14.25 27.2069 14.25 29.7569V32.1569C14.25 34.7069 14.58 37.2569 14.58 37.2569C14.58 37.2569 14.88 39.4169 15.84 40.3769C17.04 41.6369 18.6 41.5769 19.32 41.7269C21.84 41.9669 30.03 42.0569 30.03 42.0569C30.03 42.0569 36.63 42.0569 41.04 41.7269C41.64 41.6669 42.99 41.6369 44.19 40.4069C45.12 39.4469 45.45 37.2869 45.45 37.2869C45.45 37.2869 45.75 34.7369 45.75 32.1869V29.7869C45.72 27.2069 45.42 24.6569 45.42 24.6569ZM26.76 35.0369V26.1869L35.25 30.6269L26.76 35.0369Z" fill="white"/>
<defs>
<linearGradient id="paint0_linear_40_136" x1="30" y1="0.956879" x2="30" y2="60.9569" gradientUnits="userSpaceOnUse">
<stop stop-color="#0BDA64"/>
<stop offset="1" stop-color="#089044"/>
</linearGradient>
</defs>
</svg>
